<?xml version="1.0" encoding="utf-8"?>
<!-- Uploaded to: SVG Repo, www.svgrepo.com, Generator: SVG Repo Mixer Tools -->
<svg width="800px" height="800px" viewBox="-58.82 0 356.397 356.397" xmlns="http://www.w3.org/2000/svg"><defs><style>.a{fill:#ffffff;}.b{fill:#94d1e6;}.c{fill:#211916;}.d{fill:#d9d9d9;}</style></defs><path class="a" d="M63.417,229.723c.219-30.649.7-55.6,1.273-65.581.2-3.553,3.157-25.5,12.688-39.556,7.207-10.627,15.777-16.234,24.465-21.095a18.008,18.008,0,0,0,9.175-15.727V76.383c0-3.541,1.783-9.637,7.517-9.76,0,0,2.915,0,6-.041v-9.2c0-2.472,1.244-6.728,5.248-6.814h9.554c0-9.474,0-18.948,0-18.948v-.142c-5.406-.024-10.757-.052-15.271-.052-1.939,0-4.268-1.762-4.268-3.4,0-.7.006-2.993.006-3.676-10.753,0-74.232.273-87.769.273a7.156,7.156,0,0,0-6.421,4.066C23.944,31.643,18.494,41.33,15.427,47.2c-1.811,3.464-4.852,1.942-8.84-.267S1.128,44.063,2.88,40.672c2.927-5.663,10.4-18.681,13.992-24.168,1.261-1.926,4.708-4.829,10.243-4.829h92.694c0-1.475,0-2.523,0-2.7a4.7,4.7,0,0,1,.511-2.323,3.72,3.72,0,0,1,1.9-1.576c9.058-2.585,18.619-2.626,27.507-2.626,9.578,0,18.447.041,27.505,2.626a3.72,3.72,0,0,1,1.9,1.576,4.712,4.712,0,0,1,.51,2.323c0,6.316.011,13.09.011,19.286,0,1.642-2.3,3.162-4.269,3.162-4.429,0-9.665.027-14.967.051V50.569h9.236c4,.086,5.248,4.342,5.248,6.814V66.6c3.106.024,6.076.024,6.076.024,5.734.123,7.517,6.219,7.517,9.76V87.8a18.006,18.006,0,0,0,9.17,15.724c8.665,4.853,17.209,10.458,24.4,21.058,9.53,14.053,12.484,36,12.687,39.556,1.182,20.629,1.984,105.276.863,171.909A18.053,18.053,0,0,1,217.621,353.8c-18.65.067-41.757.2-67.913.2-25.37,0-49.882-.123-67.9-.192a18.046,18.046,0,0,1-17.984-17.743C63.249,301.655,63.183,262.444,63.417,229.723Z"/><path class="b" d="M203.727,151.806l-5.471-.006c-43.213-.049-95.427-.116-131.3-.156a94.135,94.135,0,0,0-2.047,12.5c-.8,14.037-1.432,57.715-1.4,105.189h.243c5.524,0,153.943.428,172.615.428.038-47.639-.592-91.538-1.4-105.617a93.6,93.6,0,0,0-2-12.3Z"/><path class="c" d="M122.4,24.347c0-.276,0-.551,0-.827a1.817,1.817,0,0,0-.207-.925A2.47,2.47,0,0,0,120,21.12l-.639.086a2.407,2.407,0,0,0-1.059.617l-.375.486a2.384,2.384,0,0,0-.327,1.211c0,.276,0,.551,0,.827a1.815,1.815,0,0,0,.207.925A2.464,2.464,0,0,0,120,26.747l.638-.086a2.387,2.387,0,0,0,1.059-.617l.376-.485a2.391,2.391,0,0,0,.327-1.212Z"/><path class="c" d="M120.04,21.947c-5.891,0-11.781.027-17.672.047q-14.139.048-28.278.1-13.905.05-27.811.1-5.061.015-10.121.026c-1.154,0-2.308,0-3.462,0a9.552,9.552,0,0,0-7.471,3.2,35.015,35.015,0,0,0-3.586,5.823q-2.128,3.8-4.228,7.616-1.133,2.06-2.247,4.128a21.955,21.955,0,0,1-1.948,3.592c-.226.272-.235.25-.5.284.327-.042-.3-.024-.4-.037.125.016-.508-.148-.651-.193a22.343,22.343,0,0,1-4.016-1.977,16.415,16.415,0,0,1-3.024-1.947c.326.3-.191-.135.138.214,0,0-.141-.394-.019-.064.1.266-.014,0,.033-.088-.177.335.071-.152.128-.308a5.952,5.952,0,0,1,.314-.674c1.042-2.052,2.175-4.062,3.3-6.071,2.772-4.965,5.615-9.895,8.59-14.742.575-.935,1.155-1.868,1.751-2.791.118-.182.236-.365.357-.546.245-.365.013-.041.114-.156a10.734,10.734,0,0,1,1.1-1.105,11.287,11.287,0,0,1,7.081-2.3c2.785-.013,5.571,0,8.356,0h84.161a2.435,2.435,0,0,0,2.4-2.4,29.7,29.7,0,0,1,.014-3.1c.14-1.3,1.124-1.328,2.228-1.606a62.585,62.585,0,0,1,9.271-1.575c6.108-.594,12.258-.553,18.388-.537a108.015,108.015,0,0,1,18.616,1.191q2.044.363,4.061.863c1.155.289,2.294.3,2.446,1.664a40.316,40.316,0,0,1,.012,4.384l0,4.994q0,4.7.006,9.4c0,.893-.025,1.149-1.095,1.524a12.017,12.017,0,0,1-3.716.152c-5.954.012-11.908.051-17.862.07-6.024.019-12.049-.007-18.073-.035q-4.442-.019-8.884-.034c-1.39,0-4.773.568-5.425-1.1.05.127,0-.473,0-.634V25.466q0-2.682,0-5.364,0-4.214,0-8.427c0-3.088-4.8-3.093-4.8,0q0,4.149,0,8.3c0,2.75-.2,5.584.019,8.327.251,3.1,3.417,5.279,6.32,5.513,3.1.251,6.311.027,9.423.041,6.691.028,13.382.071,20.072.053,6.6-.018,13.206-.064,19.809-.075,3.118-.006,6.535-.214,8.331-3.233a7.684,7.684,0,0,0,.675-4.161l0-5.627q0-5.451-.007-10.9a8.2,8.2,0,0,0-1.043-4.777,6.649,6.649,0,0,0-4.034-2.615A85.269,85.269,0,0,0,156.545.092a189.559,189.559,0,0,0-23.535.6c-3.776.408-7.9.839-11.48,2.179a6,6,0,0,0-3.709,4.274,20.7,20.7,0,0,0-.2,4.534l2.4-2.4H29.741a30.216,30.216,0,0,0-5.895.357,14.522,14.522,0,0,0-7.454,3.95,30.35,30.35,0,0,0-3.822,5.606c-1.514,2.484-2.99,4.992-4.448,7.51s-2.891,5.037-4.3,7.576A53.247,53.247,0,0,0,.372,40.919c-1.061,2.789.255,5.043,2.588,6.572a48.45,48.45,0,0,0,4.255,2.39,14.33,14.33,0,0,0,4.5,1.667,5.476,5.476,0,0,0,4.231-1.015,9.977,9.977,0,0,0,2.488-3.5c1.456-2.741,2.951-5.463,4.454-8.179q2-3.618,4.032-7.22c1-1.784,1.947-3.9,4.1-4.463A16.4,16.4,0,0,1,35,27.018l4.334-.009q12.96-.032,25.921-.083l29.961-.107q11-.039,22.006-.068,1.41,0,2.82,0c3.089,0,3.094-4.8,0-4.8Z"/><path class="c" d="M137.156,31.621V50.569c0,3.088,4.8,3.093,4.8,0V31.621c0-3.089-4.8-3.094-4.8,0Z"/><path class="c" d="M158.233,31.621V50.569c0,3.088,4.8,3.093,4.8,0V31.621c0-3.089-4.8-3.094-4.8,0Z"/><path class="c" d="M149.972,351.6q-27.526,0-55.052-.14l-11.25-.045a18.079,18.079,0,0,1-9.317-2.049,15.922,15.922,0,0,1-6.3-6.656c-1.55-3.054-1.61-6.252-1.663-9.6q-.387-24.438-.455-48.882-.088-24.046.051-48.093.119-20.407.436-40.813c.154-9.212.314-18.429.706-27.634.055-1.313.1-2.632.2-3.943.053-.671.136-1.339.217-2.007.021-.174.08-.6.023-.182.031-.224.062-.447.1-.671q.126-.873.268-1.742a113.727,113.727,0,0,1,4.38-17.88,60.5,60.5,0,0,1,10.367-19.514,65.525,65.525,0,0,1,17.7-14.532c3.149-1.851,6.248-3.547,8.584-6.444A20.633,20.633,0,0,0,113.414,90.6c.56-4.071.218-8.344.218-12.441,0-3.314.338-8.632,4.733-9.121a42.369,42.369,0,0,1,4.606-.017h56.066a8.983,8.983,0,0,1,3.987.424c3.66,1.777,3.287,6.64,3.287,10.026,0,4.419-.454,9.208.666,13.526a20.485,20.485,0,0,0,5.525,9.487c2.663,2.576,6.079,4.131,9.2,6.062a60.452,60.452,0,0,1,17.142,15.32c7.766,10.554,11.434,23.969,13.326,36.783q.049.343.1.687a1.923,1.923,0,0,1,.028.2c.054.417.105.835.15,1.253.057.52.1,1.039.133,1.56.087,1.453.145,2.908.2,4.362.162,4.05.274,8.1.373,12.154.291,11.929.451,23.861.572,35.793q.233,22.854.238,45.71.017,24.537-.213,49.072c-.078,8.051-.167,16.1-.315,24.153a15.914,15.914,0,0,1-9.679,14.635c-3.193,1.311-6.485,1.168-9.866,1.181l-11.2.046q-12.714.053-25.428.1-13.68.039-27.361.042c-3.089,0-3.094,4.8,0,4.8q27.189,0,54.378-.144,5.75-.024,11.5-.046a24.947,24.947,0,0,0,10.643-1.932,20.584,20.584,0,0,0,11.691-16.43c.441-3.9.219-7.949.273-11.868q.083-6.082.146-12.167.131-12.641.186-25.28.112-24.762-.018-49.524-.109-21.155-.428-42.309c-.155-9.548-.317-19.1-.714-28.642a101.731,101.731,0,0,0-5.175-27.478,67.586,67.586,0,0,0-10.35-20.4,66.577,66.577,0,0,0-18.084-15.885c-3.075-1.9-6.455-3.365-8.909-6.092a15.525,15.525,0,0,1-3.893-9.34c-.225-3.857-.032-7.769-.032-11.632,0-5.088-1.869-10.771-7.148-12.559a15.837,15.837,0,0,0-5.11-.447H121.835a24.652,24.652,0,0,0-5.016.226c-5.636,1.171-7.981,7.256-7.987,12.425,0,3.7.054,7.4,0,11.1a15.793,15.793,0,0,1-3.323,9.482c-2.285,2.9-5.538,4.395-8.63,6.256a67.362,67.362,0,0,0-18.218,15.417C69.846,130.181,65.517,144.206,63.287,158c-1.156,7.146-1.157,14.417-1.34,21.639-.3,12-.467,24.013-.592,36.021q-.243,23.243-.249,46.486-.017,25.248.225,50.493.063,6.212.145,12.423c.053,3.923-.041,7.887.2,11.8a20.632,20.632,0,0,0,10.921,17,22.4,22.4,0,0,0,10.456,2.341l11.637.047q13.388.056,26.775.1,14.254.041,28.51.044c3.088,0,3.093-4.8,0-4.8Z"/><path class="d" d="M176.233,92.834q-19.065.015-38.132.051-7.231.009-14.464.015c-3.088,0-3.093,4.8,0,4.8q19.067-.015,38.132-.052,7.233-.009,14.464-.014c3.089,0,3.094-4.8,0-4.8Z"/><path class="d" d="M85.014,337.077H214.885c3.089,0,3.094-4.8,0-4.8H85.014c-3.089,0-3.094,4.8,0,4.8Z"/><path class="c" d="M127.153,66.568V60.289c0-.943-.011-1.887,0-2.83a6.34,6.34,0,0,1,.6-2.814,2.464,2.464,0,0,1,2.4-1.676c.691-.014,1.384,0,2.075,0H166.42c1.455,0,3.687-.326,4.747.425a3.83,3.83,0,0,1,1.12,1.612c-.05-.122.187.638.227.794.053.206.1.412.137.62.083.429.008-.044.029.2.075.859.037,1.733.037,2.594V66.6c0,3.089,4.8,3.094,4.8,0V59.627c0-2.617-.04-5.139-1.319-7.524a7.344,7.344,0,0,0-4.747-3.744,13.565,13.565,0,0,0-2.985-.19H132.952c-2.713,0-5.385-.151-7.588,1.78-2.536,2.223-3.011,5.607-3.011,8.779v7.84c0,3.088,4.8,3.093,4.8,0Z"/></svg>