<?xml version="1.0" encoding="utf-8"?>
<!-- Uploaded to: SVG Repo, www.svgrepo.com, Generator: SVG Repo Mixer Tools -->
<svg width="800px" height="800px" viewBox="0 -18.8 308.376 308.376" xmlns="http://www.w3.org/2000/svg"><defs><style>.a{fill:#a98a75;}.b{fill:#f8b8b4;}.c{fill:#ffffff;}.d{fill:#211715;}.e{fill:#fbe1c2;}.f{fill:#febe69;}</style></defs><path class="a" d="M93.661,215.973c-13.848-.336-22.752-10.74-22.68-20.352a116.79,116.79,0,0,1,3.552-24.8c2.748-9.84,4.724-27.156,4.724-51.168-1.176-35.426,8.14-61.117,22.831-75.182,8.856-8.478,28.813-20.029,51.234-20.029a81.38,81.38,0,0,1,32.547,6.235l4.568,1.851,5.444,3.209c4.338,2.557,5.885,4.748,10.349,9.055,11.211,10.816,19,30.275,20.243,47.7.358,5.027,1.181,18.107.389,27.16.4,29.916,5.913,46.659,8.76,54.9a54.757,54.757,0,0,1,3.457,18.74c.1,11.2-13.815,25.7-29.814,19.958Z"/><path class="b" d="M48.321,268.441a202.339,202.339,0,0,1,7.2-21.064c2.8-5.868,6.228-11.676,11.172-15.792a77.146,77.146,0,0,1,17.136-11.124c5.95-2.579,13.372-5.4,20.1-8.165,13.315,8.466,31.686,14.265,50.841,14.265,19.25,0,37.361-5.707,50.577-14.057,6.589,2.693,13.792,5.442,19.6,7.957a77.146,77.146,0,0,1,17.136,11.124c4.944,4.116,8.376,9.924,11.172,15.792,1.368,2.844,4.968,14.1,6.8,20.8Z"/><path class="c" d="M115.688,101.958q1.658-1.487,3.321-3.008c8.567-.15,17.927-.209,17.927-.209,16.668-4.761,30.086-14.507,40.651-28.256,2.073,7.962,5,17.877,7.57,22.7,3.776,7.08,15.79,22.958,25.471,25.285A8.689,8.689,0,0,1,217.114,116c4.565.161,6.508,2.63,7.344,4.08,2.5,4.328,2.389,12.3.714,17.237-1.186,3.494-3.129,8.839-7.814,12.673a9.708,9.708,0,0,1-7.488,2.161l-.718-.122a57.087,57.087,0,0,1-2.576,6.993c-1.87,5.076-12.056,22.652-25.033,29.971.324,2.933.421,5.179.63,8.429a9.47,9.47,0,0,0,6.024,8.66c1.337.687,12.242,4.693,17.124,6.444-13.214,8.34-31.313,14.04-50.55,14.04a97.934,97.934,0,0,1-48.766-12.982s-.83-.548-1.945-1.279c5.134-1.846,15.235-5.563,16.517-6.223a9.467,9.467,0,0,0,6.024-8.66c.212-3.285.309-5.545.64-8.523a52.706,52.706,0,0,1-15.01-12.9,66.987,66.987,0,0,1-12.712-23.984,9.534,9.534,0,0,1-8.1-2.03c-4.684-3.834-6.628-9.179-7.814-12.673-1.675-4.934-1.78-12.909.715-17.237.836-1.45,2.779-3.919,7.344-4.08a8.957,8.957,0,0,1,5.593,1.682l7.439-6.263C108.287,108.474,111.975,105.287,115.688,101.958Z"/><path class="d" d="M50.636,269.079c1.409-5.11,3.1-10.153,4.888-15.14.36-1,.727-2,1.108-3,.144-.377.289-.752.439-1.127.079-.2.158-.393.239-.589.179-.438-.178.354.109-.249a72.319,72.319,0,0,1,4.161-7.72c6.738-10.638,18.655-16.858,29.992-21.429,6.857-2.765,13.775-5.4,20.521-8.43a2.418,2.418,0,0,0,.861-3.283,2.458,2.458,0,0,0-3.284-.861C103.562,210,97.3,212.385,91.086,214.88c-6.1,2.451-12.059,4.985-17.572,8.612-5.553,3.653-10.813,7.815-14.689,13.267A60.275,60.275,0,0,0,51.62,250.68C49.525,256.3,47.6,262.019,46.007,267.8c-.823,2.982,3.807,4.255,4.629,1.276Z"/><path class="d" d="M262.369,267.536c-2.78-10.1-5.672-20.566-11.48-29.4-3.667-5.58-8.57-9.749-14.007-13.542a86.183,86.183,0,0,0-17.227-8.916c-6.857-2.784-13.8-5.386-20.549-8.421a2.473,2.473,0,0,0-3.283.861,2.417,2.417,0,0,0,.861,3.283c5.963,2.681,12.063,5.047,18.133,7.472,5.882,2.351,11.662,4.721,17.031,8.127,5.058,3.209,10.169,6.96,13.716,11.848a57.181,57.181,0,0,1,4.7,7.876q.5.99.974,1.994c.067.142.129.288.192.433-.217-.5-.07-.166-.028-.058.364.916.706,1.839,1.036,2.768,1.979,5.577,3.732,11.251,5.3,16.955.819,2.975,5.451,1.712,4.629-1.276Z"/><path class="d" d="M186.507,28.358a86.423,86.423,0,0,0-35.828-6.266,81.768,81.768,0,0,0-36.238,10.586A63.846,63.846,0,0,0,93.558,50.672C87.7,58.686,83.765,68.057,81.172,77.6c-3.709,13.648-4.769,27.957-4.319,42.052.1,3.081,4.9,3.095,4.8,0-.69-21.624,2-45.029,14.012-63.591a56.371,56.371,0,0,1,17.906-17.3,78.291,78.291,0,0,1,32.763-11.554,81.548,81.548,0,0,1,38.9,5.782,2.416,2.416,0,0,0,2.952-1.676,2.459,2.459,0,0,0-1.676-2.953Z"/><path class="d" d="M229.262,119.649a146.911,146.911,0,0,0,.091-18.966,130.624,130.624,0,0,0-1.538-16.676c-2.283-13.049-7.486-26.065-15.821-36.44a102.744,102.744,0,0,0-7.349-7.745,38.422,38.422,0,0,0-7.553-6.161c-2.658-1.588-5.075,2.56-2.423,4.144A32.114,32.114,0,0,1,201,42.959c2.165,2.182,4.434,4.278,6.443,6.607a64.154,64.154,0,0,1,9.532,15.4,84.236,84.236,0,0,1,5.844,18.335,107.493,107.493,0,0,1,1.654,15.657,153.233,153.233,0,0,1-.008,20.687,2.419,2.419,0,0,0,2.4,2.4,2.449,2.449,0,0,0,2.4-2.4Z"/><path class="d" d="M93.661,213.573c-6.6-.207-13.243-3.074-17.114-8.588a17.235,17.235,0,0,1-3.074-7.555,46.634,46.634,0,0,1,.487-10.169c.428-3.824,1.034-7.635,1.829-11.4.577-2.738,1.383-5.415,1.985-8.146a149.489,149.489,0,0,0,2.689-18.591c.9-9.795,1.193-19.641,1.2-29.475,0-3.089-4.8-3.094-4.8,0-.005,9.163-.268,18.333-1.024,27.466A145.62,145.62,0,0,1,73.2,166.2c-.612,2.812-1.443,5.568-2.038,8.384-.856,4.06-1.483,8.172-1.956,12.293a48.433,48.433,0,0,0-.516,10.692,21.228,21.228,0,0,0,3.288,9.207c4.77,7.348,13.055,11.327,21.685,11.6,3.09.1,3.087-4.7,0-4.8Z"/><path class="d" d="M224.462,119.649c.227,15.914,1.84,31.977,6.226,47.321,1.633,5.714,3.939,11.248,5.1,17.089.756,3.8,1.37,8.544.6,12.028a19.392,19.392,0,0,1-4.226,8.314,21.983,21.983,0,0,1-9.392,6.661,19.235,19.235,0,0,1-12.866-.128,2.4,2.4,0,1,0-1.276,4.628,24.385,24.385,0,0,0,23.779-4.649,26.363,26.363,0,0,0,6.916-8.819,22.461,22.461,0,0,0,2.095-11.082A58.258,58.258,0,0,0,238.6,175.9c-.745-2.319-1.574-4.608-2.3-6.932a141.512,141.512,0,0,1-4.261-17.571,197.85,197.85,0,0,1-2.775-31.749c-.044-3.086-4.844-3.095-4.8,0Z"/><path class="d" d="M99.727,116.629a11.94,11.94,0,0,0-13.252-1.792c-3.157,1.561-4.963,4.687-5.775,8.008-1.957,8.007.08,17.138,4.658,23.93,3.277,4.862,8.053,8.552,14.184,7.685a2.416,2.416,0,0,0,1.677-2.952,2.464,2.464,0,0,0-2.953-1.677c-3.587.507-6.675-2.483-8.55-5.167a30.477,30.477,0,0,1-3.9-8.284,24.71,24.71,0,0,1-.9-9.934,14.682,14.682,0,0,1,1.055-4.36,9.99,9.99,0,0,1,.732-1.308c.277-.436-.116.086.166-.232.2-.228.407-.451.629-.66,2.122-1.995,6.452-2.036,8.832.138,2.277,2.079,5.681-1.306,3.394-3.395Z"/><path class="d" d="M212.441,120.024a7.023,7.023,0,0,1,8.309-.552,6.444,6.444,0,0,1,1.009.909c.1.1.19.217.278.328-.019-.024-.222-.3-.075-.086.132.2.263.391.382.594a12.258,12.258,0,0,1,1.352,4.091c1.112,6.177-.6,12.8-3.823,18.1-1.9,3.134-5.249,7-9.365,6.42a2.482,2.482,0,0,0-2.952,1.677,2.418,2.418,0,0,0,1.676,2.952c10.012,1.415,15.857-8.758,18.4-16.954a29.186,29.186,0,0,0,.754-13.125c-.562-3.48-2.024-6.844-4.989-8.9a11.857,11.857,0,0,0-14.348,1.15c-2.286,2.088,1.116,5.475,3.394,3.395Z"/><path class="d" d="M207.9,147.249a72.49,72.49,0,0,1-3.863,11.7c.295-.757-.033.067-.1.22q-.153.336-.312.669c-.287.6-.589,1.192-.9,1.779-.693,1.31-1.434,2.594-2.207,3.859a70.331,70.331,0,0,1-15.264,18.091,28.267,28.267,0,0,1-11.342,5.875c-3.01.69-1.736,5.319,1.276,4.628,8.49-1.949,15.546-8.185,21.081-14.626a76.273,76.273,0,0,0,11.812-17.852c.186-.411.363-.826.535-1.243.051-.123.317-.772.178-.447-.184.432.131-.277.133-.283.154-.349.3-.7.448-1.054q.359-.862.684-1.737a55.525,55.525,0,0,0,2.472-8.3,2.46,2.46,0,0,0-1.677-2.952,2.423,2.423,0,0,0-2.952,1.676Z"/><path class="d" d="M96.083,148.325a70.148,70.148,0,0,0,9.964,23.386c5.06,7.578,11.7,14.679,19.741,19.123a39,39,0,0,0,13.186,4.477,2.481,2.481,0,0,0,2.953-1.677,2.418,2.418,0,0,0-1.677-2.952c-16.833-2.471-29.433-17.089-35.824-32.029a67.262,67.262,0,0,1-3.714-11.6c-.681-3.012-5.31-1.737-4.629,1.276Z"/><path class="d" d="M146.585,167.405c.413-.218.829-.429,1.253-.626.073-.033.5-.207.156-.07-.366.146.176-.064.2-.072.306-.109.611-.218.922-.313a17.647,17.647,0,0,1,5.514-.759,17.023,17.023,0,0,1,5.568.725c.354.111.7.237,1.047.375-.528-.212.192.1.364.193q.321.168.629.361c.191.12.875.634.18.093a2.479,2.479,0,0,0,3.394,0,2.416,2.416,0,0,0,0-3.394c-3.074-2.4-7-3.129-10.827-3.153a22.464,22.464,0,0,0-10.821,2.5,2.4,2.4,0,0,0,2.423,4.145Z"/><path class="d" d="M153.979,139.746a51.868,51.868,0,0,1,1.222,5.588l-.086-.638a3.379,3.379,0,0,1,.021.772l.086-.638a1.86,1.86,0,0,1-.085.346l.242-.573a1.344,1.344,0,0,1-.123.223l.376-.485a1.246,1.246,0,0,1-.183.18l.486-.376a3.466,3.466,0,0,1-.443.234l.574-.241a3.253,3.253,0,0,1-.746.217l.638-.086a2.936,2.936,0,0,1-.7,0l.638.086c-.264-.037-.523-.1-.787-.137a2.655,2.655,0,0,0-1.849.242,2.4,2.4,0,0,0-.861,3.284,2.3,2.3,0,0,0,1.434,1.1c.56.075,1.1.219,1.672.244a5.263,5.263,0,0,0,2.411-.566,3.38,3.38,0,0,0,1.9-2.239,5.805,5.805,0,0,0-.027-2.465c-.3-1.8-.72-3.584-1.183-5.35a2.4,2.4,0,0,0-4.629,1.276Z"/><path class="d" d="M124.167,124.138c-.9,2.938-.315,9.7,5.252,10.273,7.358-.044,7.749-8.217,5.272-12.059C132.664,119.206,126.7,117.9,124.167,124.138Z"/><path class="d" d="M175.449,71.81c1.253,4.745,2.59,9.476,4.177,14.122a53.021,53.021,0,0,0,4.462,10.228A77.517,77.517,0,0,0,198.577,113.9c3.132,2.8,6.633,5.41,10.686,6.69,2.953.932,4.217-3.7,1.277-4.629a24.21,24.21,0,0,1-8.057-5,69.145,69.145,0,0,1-8.078-8.492,55.667,55.667,0,0,1-9.762-16.686c-1.767-5-3.212-10.115-4.566-15.241-.788-2.984-5.419-1.719-4.628,1.276Z"/><path class="d" d="M135.714,79.722c-10.554,10.362-21.272,20.613-32.718,30a2.418,2.418,0,0,0,0,3.394,2.455,2.455,0,0,0,3.394,0c11.447-9.382,22.164-19.633,32.718-30,2.208-2.168-1.187-5.561-3.394-3.394Z"/><path class="d" d="M175.838,68.856a81.932,81.932,0,0,1-17.533,17.079A73.8,73.8,0,0,1,136.3,96.427c-2.963.854-1.7,5.488,1.276,4.629a79.192,79.192,0,0,0,34.027-20.1,90.563,90.563,0,0,0,7.631-8.707,2.481,2.481,0,0,0,0-3.394,2.414,2.414,0,0,0-3.394,0Z"/><path class="d" d="M102.226,215.492c4.283-1.482,8.533-3.069,12.776-4.659,4.539-1.7,9.907-3.124,12.416-7.673,2.089-3.786,1.68-8.408,2.053-12.583a2.417,2.417,0,0,0-2.4-2.4,2.451,2.451,0,0,0-2.4,2.4c-.168,1.881-.278,3.765-.4,5.649a11.634,11.634,0,0,1-.711,3.936,6.61,6.61,0,0,1-2.519,2.98,15.709,15.709,0,0,1-1.766.905c-.076.035-.154.068-.229.1-.415.2.529-.21.031-.012-4.1,1.632-8.246,3.151-12.393,4.663-1.909.7-3.818,1.4-5.739,2.061-2.9,1-1.654,5.642,1.276,4.629Z"/><path class="d" d="M207.825,210.863c-3.978-1.376-7.926-2.849-11.869-4.32-1.93-.719-3.863-1.437-5.775-2.205-.141-.057-.282-.116-.424-.172-.461-.184.048.02.06.026-.313-.146-.631-.278-.943-.425a7.154,7.154,0,0,1-3.04-2.474,8.39,8.39,0,0,1-1.276-4.119c-.149-2.2-.258-4.4-.455-6.6a2.463,2.463,0,0,0-2.4-2.4,2.419,2.419,0,0,0-2.4,2.4c.332,3.7.006,7.788,1.447,11.277a11.954,11.954,0,0,0,6.507,6.423c4.255,1.861,8.679,3.374,13.039,4.966,2.08.76,4.16,1.525,6.253,2.249,2.925,1.011,4.182-3.624,1.276-4.629Z"/><path class="d" d="M104.794,215.652c24.377,14.34,55.03,17.038,81.779,8.211a91.416,91.416,0,0,0,19.96-9.27c2.61-1.638.2-5.793-2.423-4.144-22.725,14.265-51.742,17.23-77.26,9.562a89.4,89.4,0,0,1-19.633-8.5c-2.669-1.57-5.087,2.578-2.423,4.145Z"/><path class="d" d="M185.1,112.2c-.09.016-.181.029-.271.041l.638-.086a7.824,7.824,0,0,1-1.91-.005l.638.086a7.957,7.957,0,0,1-1.844-.5l.573.242a7.428,7.428,0,0,1-1.275-.688c-.086-.057-.168-.119-.252-.179-.234-.166.447.37.147.108-.171-.15-.339-.3-.5-.461-.145-.146-.284-.3-.416-.457-.306-.366.1.15.108.147-.01,0-.2-.289-.213-.3a7.579,7.579,0,0,1-.644-1.193l.242.573c-.047-.114-.092-.229-.136-.345a2.584,2.584,0,0,0-1.1-1.434,2.4,2.4,0,0,0-3.526,2.71,10.089,10.089,0,0,0,4.074,5.114,9.94,9.94,0,0,0,6.943,1.255,2.4,2.4,0,0,0,1.434-1.1,2.4,2.4,0,0,0-.861-3.284,2.77,2.77,0,0,0-1.849-.242Z"/><path class="d" d="M183.474,124.934c-3.155-.065-6.308.142-9.461.227a2.4,2.4,0,0,0,0,4.8c3.153-.085,6.306-.292,9.461-.227a2.4,2.4,0,0,0,0-4.8Z"/><path class="c" d="M202.491,237.968l32.575-5.537c-2.762-11.487-5.569-23.371-6.88-29.613a43.051,43.051,0,0,0-2.154-7.911c-2.814-7.283-3.56-16.79-4.879-25.351-1.219-7.907-2.1-15.786-6.983-22.4a9.417,9.417,0,0,0-11.31-3.572c-5.243-6.146-9.605-5.384-12.811-2.007l-2.041-1.368c-2.075-1.563-5.692-2.716-8.539-.594a7.271,7.271,0,0,0-1.435,1.488c-3.063-6.891-10.045-5.124-10.515,1.419-.336,4.674,2.429,9.18,2.805,13.767l1.879,1.639c-.538,4.181-.208,8.164,1.912,11.131,1.961.523,3.488,10.113,5.415,14.972,1.318,3.322,3.546,5.072,6.454,7.13a76.025,76.025,0,0,0,12.895,7.549C200.373,204.847,201.514,221.345,202.491,237.968Z"/><path class="d" d="M228.346,194.269c-2.623-6.908-3.341-14.4-4.345-21.665-1.009-7.3-1.821-14.88-4.866-21.671-1.436-3.2-3.427-6.39-6.344-8.43a11.6,11.6,0,0,0-8.66-1.71,18.291,18.291,0,0,0-8.107,3.949c-2.6,2.056-5.316,4.86-5.733,8.293a8.725,8.725,0,0,0,6.592,9c4.223.794,7.565-2.547,9.8-5.685a2.42,2.42,0,0,0-.861-3.284,2.453,2.453,0,0,0-3.284.861c-1.017,1.431-3.186,4.134-5.156,3.288a4.728,4.728,0,0,1-2.183-2.47,3.022,3.022,0,0,1,.52-2.811c2.244-3.564,7.2-6.97,11.5-6.544,5.031.5,7.692,7.053,9,11.3,1.811,5.9,2.484,12.186,3.315,18.28.941,6.91,1.7,14,4.195,20.567a2.468,2.468,0,0,0,2.952,1.676,2.418,2.418,0,0,0,1.676-2.952Z"/><path class="d" d="M203.07,157.734c-1.268,4.836-3.657,9.3-4.858,14.147a21.437,21.437,0,0,0,2.216,15.6c1.448,2.73,5.592.308,4.145-2.423a16.539,16.539,0,0,1-1.469-12.882c1.29-4.473,3.411-8.649,4.595-13.163.784-2.99-3.845-4.266-4.629-1.276Z"/><path class="d" d="M202.492,139.776c-3.224-2.756-7.238-4.2-11.231-2.148-3.282,1.688-5.457,5.218-6.89,8.491a32.109,32.109,0,0,0-2.786,10.746c-.278,4.366-.521,9.874,3.2,12.953,2.6,2.152,6.3,3,9.264,1.033,2.694-1.783,3.368-5.081,3.917-8.055a2.464,2.464,0,0,0-1.676-2.952,2.421,2.421,0,0,0-2.952,1.676c-.281,1.519-.483,4.158-1.695,5.16-1.257,1.04-3.026.277-4.024-.767-1.947-2.035-1.423-6.312-1.227-9.143.021-.3.051-.6.085-.894.011-.1.066-.464,0,0,.021-.145.042-.292.067-.436.124-.695.256-1.387.421-2.075a32.781,32.781,0,0,1,1.391-4.423,24.553,24.553,0,0,1,1.914-3.744q.3-.476.631-.932a2.791,2.791,0,0,1,.372-.467,11.86,11.86,0,0,1,1.467-1.455c-.309.249.429-.285.578-.373s1.011-.46.555-.3a6.815,6.815,0,0,1,.99-.273c-.529.1.415-.008.608-.006a4.066,4.066,0,0,1,.428.031c-.44-.053.1.033.24.072.258.072.778.243.849.274a10.275,10.275,0,0,1,2.113,1.393,2.462,2.462,0,0,0,3.394,0,2.421,2.421,0,0,0,0-3.394Z"/><path class="d" d="M189.219,138.14c-3.131-2.27-7.68-2.942-10.962-.595-2.968,2.124-4.487,5.924-5.7,9.233-2.195,6-4.165,13.355-2.3,19.687a12.884,12.884,0,0,0,7.11,8.18,2.474,2.474,0,0,0,3.284-.861,2.42,2.42,0,0,0-.861-3.284,8.413,8.413,0,0,1-4.679-4.621,16.038,16.038,0,0,1-.569-7.457,44.393,44.393,0,0,1,1.878-8.093,27.717,27.717,0,0,1,3.328-7.513c1.8-2.618,4.7-2.238,7.051-.531a2.418,2.418,0,0,0,3.283-.861,2.454,2.454,0,0,0-.861-3.284Z"/><path class="d" d="M179.729,139.125a9.355,9.355,0,0,0-4.96-4.453,6.831,6.831,0,0,0-5.626.574c-4.487,2.618-4.5,8.42-3.366,12.853.364,1.422.832,2.813,1.251,4.218.208.7.405,1.4.57,2.1a12.943,12.943,0,0,1,.326,1.87,2.454,2.454,0,0,0,2.4,2.4,2.427,2.427,0,0,0,2.4-2.4c-.281-3.057-1.328-5.873-2.142-8.808a14.851,14.851,0,0,1-.688-3.883c-.008-.358,0-.718.025-1.076.01-.145.024-.291.042-.436q-.057.428.012.011c.067-.26.116-.523.195-.781.02-.067.279-.744.142-.43s.167-.31.2-.368c.115-.2.245-.393.377-.585-.367.534.059-.039.166-.147.126-.125.682-.5.121-.144.175-.112.35-.22.526-.33.09-.049.181-.094.274-.137q-.511.209-.15.074a5.453,5.453,0,0,0,.584-.153c.261-.044.2-.036-.19.024q.151-.012.3-.015c.236.016.785-.126.127-.029a1.785,1.785,0,0,1,.615.144c.1.032.206.067.306.106q-.477-.21-.117-.042c.2.116.4.234.6.349q.32.228-.048-.051c.1.079.192.161.285.245.195.179.366.377.551.565q.256.312.019,0c.087.117.171.237.252.358.171.256.326.522.475.792a2.4,2.4,0,1,0,4.145-2.423Z"/><path class="d" d="M173.38,172c2.25,5.888,2.477,13.051,7.084,17.768a44.528,44.528,0,0,0,7.689,5.772,73.53,73.53,0,0,0,9.931,5.432,2.473,2.473,0,0,0,3.284-.861,2.417,2.417,0,0,0-.861-3.283,73.316,73.316,0,0,1-9.456-5.125,42.883,42.883,0,0,1-6.948-5.085c-2.032-1.985-2.8-4.544-3.549-7.21-.821-2.9-1.469-5.867-2.546-8.684a2.469,2.469,0,0,0-2.952-1.676A2.417,2.417,0,0,0,173.38,172Z"/><path class="d" d="M196.594,199.449a106.727,106.727,0,0,1,1.935,15.524c.657,7.853,1.132,15.721,1.589,23.588.178,3.07,4.979,3.091,4.8,0-.465-8.007-.947-16.015-1.624-24.007-.461-5.446-.821-11.046-2.072-16.381-.7-3.007-5.334-1.734-4.628,1.276Z"/><path class="d" d="M223.966,196.122c-.171-.379.119.315.146.389.106.3.2.592.3.891.23.734.432,1.477.621,2.222.336,1.319.606,2.649.876,3.983.58,2.865,1.244,5.715,1.9,8.565,1.64,7.165,3.355,14.312,5.083,21.457.725,3,5.355,1.73,4.628-1.276-1.759-7.275-3.506-14.554-5.172-21.851-.654-2.861-1.322-5.724-1.891-8.6a37.5,37.5,0,0,0-2.339-8.2,2.417,2.417,0,0,0-3.283-.861,2.459,2.459,0,0,0-.861,3.284Z"/><path class="d" d="M236.967,230.289c-13.252,2.154-26.474,4.5-39.71,6.751a2.418,2.418,0,0,0-1.676,2.952,2.454,2.454,0,0,0,2.952,1.676c13.236-2.251,26.458-4.6,39.71-6.75a2.42,2.42,0,0,0,1.677-2.953,2.458,2.458,0,0,0-2.953-1.676Z"/><path class="e" d="M153.41,131.638q1.622-2.163,3.256-4.318.836-1.1,1.679-2.194c.179-.231.05-.048-.057.073.076-.086.143-.183.213-.274l.48-.618q.452-.581.907-1.158a2.617,2.617,0,0,0,.7-1.7,2.447,2.447,0,0,0-.7-1.7c-.865-.793-2.565-1.053-3.394,0-2.454,3.12-4.849,6.285-7.229,9.462a2.409,2.409,0,0,0-.242,1.849,2.449,2.449,0,0,0,1.1,1.434,2.42,2.42,0,0,0,1.85.242,2.8,2.8,0,0,0,1.434-1.1Z"/><path class="e" d="M163.935,131.638q1.621-2.163,3.256-4.318.837-1.1,1.679-2.194c.179-.231.05-.048-.056.073.076-.086.142-.183.213-.274l.479-.618q.451-.581.907-1.158a2.617,2.617,0,0,0,.7-1.7,2.443,2.443,0,0,0-.7-1.7c-.864-.793-2.565-1.053-3.394,0-2.454,3.12-4.849,6.285-7.228,9.462a2.409,2.409,0,0,0-.242,1.849,2.4,2.4,0,0,0,2.952,1.676,2.794,2.794,0,0,0,1.434-1.1Z"/><path class="e" d="M142.885,131.638q1.622-2.163,3.255-4.318.837-1.1,1.68-2.194c.178-.231.049-.048-.057.073.076-.086.142-.183.213-.274l.479-.618q.453-.581.907-1.158a2.617,2.617,0,0,0,.7-1.7,2.443,2.443,0,0,0-.7-1.7c-.864-.793-2.565-1.053-3.394,0-2.454,3.12-4.848,6.285-7.228,9.462a2.409,2.409,0,0,0-.242,1.849,2.445,2.445,0,0,0,1.1,1.434,2.418,2.418,0,0,0,1.849.242,2.8,2.8,0,0,0,1.435-1.1Z"/><path class="f" d="M306.875,126.034c-.4-.443-1.52-1.144-1.531-1.817a3.307,3.307,0,0,1,.361-.946,6.464,6.464,0,0,0,.315-1.614,4.513,4.513,0,0,0-2.524-4.739c-.845-.341-1.969-.18-2.731-.67a4.2,4.2,0,0,1-1.053-1.442c-.9-1.58-2.054-3.086-4.073-3.016a6.112,6.112,0,0,0-2.962,1c-.4.251-.773.543-1.173.793a1.514,1.514,0,0,1-.828.348c-.382-.041-.778-.476-1.118-.654a4.7,4.7,0,0,0-1.426-.468,5.963,5.963,0,0,0-2.764.111,4.391,4.391,0,0,0-2.184,1.676,5.038,5.038,0,0,0-.61,1.213c-.157.434-.165.917-.33,1.342-.233.6-1.163.616-1.724.721a7.032,7.032,0,0,0-2.3.742,4.446,4.446,0,0,0-1.951,4.83,17.9,17.9,0,0,1,.464,2.315c.035.8-.57,1.358-1,1.984a4.333,4.333,0,0,0,.661,5.544,7.815,7.815,0,0,0,2.5,1.611c.638.336.489,1.135.482,1.774a6.917,6.917,0,0,0,.464,2.781,4.381,4.381,0,0,0,4.6,2.621,4.85,4.85,0,0,1,2.453.123c.719.4,1.175,1.249,1.839,1.742a4.47,4.47,0,0,0,5.577-.594,11.156,11.156,0,0,0,1.491-2.056,2.906,2.906,0,0,1,.567-.678,1.173,1.173,0,0,1,.9-.17c.964.055,1.9.364,2.868.4a5.078,5.078,0,0,0,2.906-.759,4.213,4.213,0,0,0,1.782-2.212,4.6,4.6,0,0,0,.182-1.5,5.9,5.9,0,0,1-.009-1.6,3.4,3.4,0,0,1,1.178-1.438,7.968,7.968,0,0,0,1.674-1.846C308.93,129.645,308.208,127.525,306.875,126.034Z"/><path class="f" d="M67.753,14.247c-.4-.443-1.519-1.144-1.53-1.817a3.313,3.313,0,0,1,.361-.947A6.508,6.508,0,0,0,66.9,9.869a4.511,4.511,0,0,0-2.524-4.738c-.844-.342-1.968-.18-2.73-.671a4.177,4.177,0,0,1-1.053-1.442c-.9-1.58-2.055-3.086-4.073-3.016a6.11,6.11,0,0,0-2.963,1c-.4.25-.772.542-1.173.792a1.514,1.514,0,0,1-.827.348c-.383-.041-.779-.476-1.119-.653a4.632,4.632,0,0,0-1.426-.468,5.959,5.959,0,0,0-2.763.11,4.382,4.382,0,0,0-2.184,1.676,5.078,5.078,0,0,0-.611,1.213c-.157.434-.164.917-.329,1.342-.234.6-1.163.617-1.724.721a7.048,7.048,0,0,0-2.3.742,4.444,4.444,0,0,0-1.951,4.83,18.132,18.132,0,0,1,.463,2.315c.036.8-.57,1.358-1,1.984a4.334,4.334,0,0,0,.662,5.544,7.783,7.783,0,0,0,2.5,1.611c.639.336.489,1.135.482,1.774a6.9,6.9,0,0,0,.465,2.781,4.381,4.381,0,0,0,4.6,2.621,4.846,4.846,0,0,1,2.452.123c.719.4,1.175,1.249,1.839,1.742a4.468,4.468,0,0,0,5.577-.594A11.077,11.077,0,0,0,56.686,29.5a2.886,2.886,0,0,1,.568-.678,1.171,1.171,0,0,1,.9-.17c.964.055,1.9.364,2.868.4a5.063,5.063,0,0,0,2.906-.759,4.215,4.215,0,0,0,1.783-2.212,4.6,4.6,0,0,0,.181-1.5,5.982,5.982,0,0,1-.009-1.6,3.4,3.4,0,0,1,1.178-1.438A7.972,7.972,0,0,0,68.737,19.7C69.809,17.857,69.087,15.738,67.753,14.247Z"/><path class="f" d="M258.581,18.864c-.248-.277-.949-.715-.956-1.135a2.062,2.062,0,0,1,.225-.591,4.017,4.017,0,0,0,.2-1.008,2.816,2.816,0,0,0-1.576-2.959c-.527-.213-1.229-.113-1.705-.419a2.611,2.611,0,0,1-.658-.9c-.56-.987-1.283-1.928-2.543-1.884a3.813,3.813,0,0,0-1.85.625c-.25.156-.483.339-.733.495a.95.95,0,0,1-.517.217c-.238-.025-.486-.3-.7-.408a2.888,2.888,0,0,0-.891-.292,3.716,3.716,0,0,0-1.726.069,2.744,2.744,0,0,0-1.364,1.046,3.188,3.188,0,0,0-.381.758c-.1.271-.1.572-.206.838-.145.376-.726.385-1.076.45a4.416,4.416,0,0,0-1.435.464,2.775,2.775,0,0,0-1.218,3.016,11.078,11.078,0,0,1,.289,1.446c.023.5-.356.848-.625,1.239a2.705,2.705,0,0,0,.413,3.462,4.856,4.856,0,0,0,1.563,1.006c.4.21.3.709.3,1.108a4.3,4.3,0,0,0,.29,1.737,2.735,2.735,0,0,0,2.875,1.637,3.026,3.026,0,0,1,1.532.077c.449.247.733.78,1.148,1.087a2.791,2.791,0,0,0,3.483-.37,6.977,6.977,0,0,0,.931-1.284,1.828,1.828,0,0,1,.354-.424.736.736,0,0,1,.563-.106c.6.034,1.186.227,1.791.252a3.161,3.161,0,0,0,1.815-.474,2.632,2.632,0,0,0,1.114-1.381,2.873,2.873,0,0,0,.113-.936,3.707,3.707,0,0,1-.006-1,2.133,2.133,0,0,1,.736-.9,4.942,4.942,0,0,0,1.046-1.152A2.921,2.921,0,0,0,258.581,18.864Z"/><path class="f" d="M19.9,146.412c-.247-.276-.949-.714-.956-1.135a2.076,2.076,0,0,1,.226-.591,4.062,4.062,0,0,0,.2-1.008,2.817,2.817,0,0,0-1.576-2.959c-.527-.213-1.229-.112-1.705-.418a2.625,2.625,0,0,1-.658-.9c-.56-.987-1.283-1.927-2.543-1.884a3.82,3.82,0,0,0-1.851.625c-.25.157-.482.339-.732.5a.942.942,0,0,1-.517.217c-.239-.025-.486-.3-.7-.408a2.9,2.9,0,0,0-.891-.292,3.729,3.729,0,0,0-1.726.069A2.74,2.74,0,0,0,5.1,139.269a3.163,3.163,0,0,0-.381.757c-.1.271-.1.573-.206.839-.145.375-.726.384-1.076.45a4.383,4.383,0,0,0-1.435.463,2.776,2.776,0,0,0-1.218,3.016,11.454,11.454,0,0,1,.289,1.446c.022.5-.356.848-.626,1.239a2.708,2.708,0,0,0,.413,3.462,4.9,4.9,0,0,0,1.563,1.007c.4.21.306.709.3,1.108a4.318,4.318,0,0,0,.29,1.736,2.737,2.737,0,0,0,2.876,1.637,3.022,3.022,0,0,1,1.531.077c.449.247.734.78,1.149,1.088a2.791,2.791,0,0,0,3.483-.371,6.977,6.977,0,0,0,.931-1.284,1.8,1.8,0,0,1,.354-.424.736.736,0,0,1,.563-.106c.6.034,1.186.228,1.791.253a3.179,3.179,0,0,0,1.815-.474,2.636,2.636,0,0,0,1.113-1.382,2.844,2.844,0,0,0,.114-.936,3.707,3.707,0,0,1-.006-1,2.117,2.117,0,0,1,.736-.9,4.985,4.985,0,0,0,1.045-1.153A2.918,2.918,0,0,0,19.9,146.412Z"/></svg>